<svg width="25" height="24" viewBox="0 0 25 24" fill="none" xmlns="http://www.w3.org/2000/svg">
<path d="M15.8999 4V2M15.8999 4V6M15.8999 4H11.3999M3.8999 10V19C3.8999 19.5304 4.11062 20.0391 4.48569 20.4142C4.86076 20.7893 5.36947 21 5.8999 21H19.8999C20.4303 21 20.939 20.7893 21.3141 20.4142C21.6892 20.0391 21.8999 19.5304 21.8999 19V10M3.8999 10H21.8999M3.8999 10V6C3.8999 5.46957 4.11062 4.96086 4.48569 4.58579C4.86076 4.21071 5.36947 4 5.8999 4H7.8999M21.8999 10V6C21.8999 5.46957 21.6892 4.96086 21.3141 4.58579C20.939 4.21071 20.4303 4 19.8999 4H19.3999M7.8999 2V6" stroke="#9AA4B2" stroke-width="1.5" stroke-linecap="round" stroke-linejoin="round"/>
</svg>
