<svg width="25" height="24" viewBox="0 0 21 20" fill="none" xmlns="http://www.w3.org/2000/svg">
<path d="M1.2998 18.4V12.6C1.2998 12.4409 1.36302 12.2883 1.47554 12.1757C1.58806 12.0632 1.74067 12 1.8998 12H18.6998C18.8589 12 19.0115 12.0632 19.1241 12.1757C19.2366 12.2883 19.2998 12.4409 19.2998 12.6V18.4C19.2998 18.5591 19.2366 18.7117 19.1241 18.8243C19.0115 18.9368 18.8589 19 18.6998 19H1.8998C1.74067 19 1.58806 18.9368 1.47554 18.8243C1.36302 18.7117 1.2998 18.5591 1.2998 18.4ZM12.2998 7.4V1.6C12.2998 1.44087 12.363 1.28826 12.4755 1.17574C12.5881 1.06321 12.7407 1 12.8998 1H18.6998C18.8589 1 19.0115 1.06321 19.1241 1.17574C19.2366 1.28826 19.2998 1.44087 19.2998 1.6V7.4C19.2998 7.55913 19.2366 7.71174 19.1241 7.82426C19.0115 7.93679 18.8589 8 18.6998 8H12.8998C12.7407 8 12.5881 7.93679 12.4755 7.82426C12.363 7.71174 12.2998 7.55913 12.2998 7.4ZM1.2998 7.4V1.6C1.2998 1.44087 1.36302 1.28826 1.47554 1.17574C1.58806 1.06321 1.74067 1 1.8998 1H7.6998C7.85893 1 8.01155 1.06321 8.12407 1.17574C8.23659 1.28826 8.2998 1.44087 8.2998 1.6V7.4C8.2998 7.55913 8.23659 7.71174 8.12407 7.82426C8.01155 7.93679 7.85893 8 7.6998 8H1.8998C1.74067 8 1.58806 7.93679 1.47554 7.82426C1.36302 7.71174 1.2998 7.55913 1.2998 7.4Z" stroke="currentColor" stroke-width="1.5"
/>
</svg>
