<svg xmlns="http://www.w3.org/2000/svg" xmlns:xlink="http://www.w3.org/1999/xlink" xmlns:serif="http://www.serif.com/" viewBox="0 0 32 32" version="1.1" xml:space="preserve" style="" x="0px" y="0px" fill="currentColor" fill-rule="evenodd" clip-rule="evenodd" stroke-linejoin="round" stroke-miterlimit="2">
  <g transform="matrix(1,0,0,1,-160,-32)">
    <g>
      <path d="M176,43C173.24,43 171,45.24 171,48C171,50.76 173.24,53 176,53C178.76,53 181,50.76 181,48C181,45.24 178.76,43 176,43ZM176,45C177.656,45 179,46.344 179,48C179,49.656 177.656,51 176,51C174.344,51 173,49.656 173,48C173,46.344 174.344,45 176,45Z"/>
      <path d="M175,37.045L175,34C175,33.448 175.448,33 176,33C176.552,33 177,33.448 177,34L177,37.045C182.274,37.521 186.479,41.726 186.955,47L190,47C190.552,47 191,47.448 191,48C191,48.552 190.552,49 190,49L186.955,49C186.479,54.274 182.274,58.479 177,58.955L177,62C177,62.552 176.552,63 176,63C175.448,63 175,62.552 175,62L175,58.955C169.726,58.479 165.521,54.274 165.045,49L162,49C161.448,49 161,48.552 161,48C161,47.448 161.448,47 162,47L165.045,47C165.521,41.726 169.726,37.521 175,37.045ZM176,39C180.967,39 185,43.033 185,48C185,52.967 180.967,57 176,57C171.033,57 167,52.967 167,48C167,43.033 171.033,39 176,39Z"/>
    </g>
  </g>
</svg>
