<svg width="25" height="24" viewBox="0 0 25 24" fill="none" xmlns="http://www.w3.org/2000/svg">
<path d="M12.6997 2C7.17671 2 2.69971 6.477 2.69971 12C2.69971 17.523 7.17671 22 12.6997 22C18.2227 22 22.6997 17.523 22.6997 12C22.6997 6.477 18.2227 2 12.6997 2Z" stroke="#9AA4B2" stroke-width="1.5" stroke-linecap="round" stroke-linejoin="round"/>
<path d="M4.9707 18.346C4.9707 18.346 7.1997 15.5 12.6997 15.5C18.1997 15.5 20.4297 18.346 20.4297 18.346M12.6997 12C13.4954 12 14.2584 11.6839 14.821 11.1213C15.3836 10.5587 15.6997 9.79565 15.6997 9C15.6997 8.20435 15.3836 7.44129 14.821 6.87868C14.2584 6.31607 13.4954 6 12.6997 6C11.9041 6 11.141 6.31607 10.5784 6.87868C10.0158 7.44129 9.6997 8.20435 9.6997 9C9.6997 9.79565 10.0158 10.5587 10.5784 11.1213C11.141 11.6839 11.9041 12 12.6997 12Z" stroke="#9AA4B2" stroke-width="1.5" stroke-linecap="round" stroke-linejoin="round"/>
</svg>
