<svg width="25" height="24" viewBox="0 0 25 24" fill="none" xmlns="http://www.w3.org/2000/svg">
<path d="M18.2341 11C18.8151 16.375 21.1001 18 21.1001 18H3.1001C3.1001 18 6.1001 15.867 6.1001 8.4C6.1001 6.703 6.7321 5.075 7.8571 3.875C8.9831 2.675 10.5101 2 12.1001 2C12.4371 2 12.7721 2.03 13.1001 2.09M13.8301 21C13.6545 21.3033 13.4022 21.5552 13.0986 21.7302C12.7949 21.9053 12.4506 21.9974 12.1001 21.9974C11.7496 21.9974 11.4053 21.9053 11.1016 21.7302C10.798 21.5552 10.5457 21.3033 10.3701 21M19.1001 8C19.8957 8 20.6588 7.68393 21.2214 7.12132C21.784 6.55871 22.1001 5.79565 22.1001 5C22.1001 4.20435 21.784 3.44129 21.2214 2.87868C20.6588 2.31607 19.8957 2 19.1001 2C18.3044 2 17.5414 2.31607 16.9788 2.87868C16.4162 3.44129 16.1001 4.20435 16.1001 5C16.1001 5.79565 16.4162 6.55871 16.9788 7.12132C17.5414 7.68393 18.3044 8 19.1001 8Z" stroke="#9AA4B2" stroke-width="1.5" stroke-linecap="round" stroke-linejoin="round"/>
</svg>
