<svg width="16" height="16" viewBox="0 0 16 16" fill="none" xmlns="http://www.w3.org/2000/svg">
<g clip-path="url(#clip0_99_9316)">
<path fill-rule="evenodd" clip-rule="evenodd" d="M15.1667 7.99992C15.1667 4.04178 11.9582 0.833252 8.00008 0.833252C4.04194 0.833252 0.833416 4.04178 0.833416 7.99992C0.833416 11.9581 4.04194 15.1666 8.00008 15.1666C11.9582 15.1666 15.1667 11.9581 15.1667 7.99992ZM8.00008 1.83325C11.4059 1.83325 14.1667 4.59406 14.1667 7.99992C14.1667 11.4058 11.4059 14.1666 8.00008 14.1666C4.59422 14.1666 1.83342 11.4058 1.83342 7.99992C1.83342 4.59406 4.59422 1.83325 8.00008 1.83325ZM8.00008 4.83325C7.72394 4.83325 7.50008 5.05711 7.50008 5.33325V7.49992H5.33342C5.05727 7.49992 4.83342 7.72378 4.83342 7.99992C4.83342 8.27606 5.05727 8.49992 5.33342 8.49992H7.50008V10.6666C7.50008 10.9427 7.72394 11.1666 8.00008 11.1666C8.27622 11.1666 8.50008 10.9427 8.50008 10.6666V8.49992H10.6667C10.9429 8.49992 11.1667 8.27606 11.1667 7.99992C11.1667 7.72378 10.9429 7.49992 10.6667 7.49992H8.50008V5.33325C8.50008 5.05711 8.27622 4.83325 8.00008 4.83325Z" fill="currentColor"/>
</g>
<defs>
<clipPath id="clip0_99_9316">
<rect width="16" height="16" fill="white" transform="matrix(-1 0 0 1 16 0)"/>
</clipPath>
</defs>
</svg>
