<svg width="25" height="24" viewBox="0 0 25 24" fill="none" xmlns="http://www.w3.org/2000/svg">
<path d="M20.5 10C20.5 14.418 12.5 22 12.5 22C12.5 22 4.5 14.418 4.5 10C4.5 7.87827 5.34285 5.84344 6.84315 4.34315C8.34344 2.84285 10.3783 2 12.5 2C14.6217 2 16.6566 2.84285 18.1569 4.34315C19.6571 5.84344 20.5 7.87827 20.5 10Z" stroke="currentColor" stroke-width="1.5"/>
<path d="M12.5 11C12.7652 11 13.0196 10.8946 13.2071 10.7071C13.3946 10.5196 13.5 10.2652 13.5 10C13.5 9.73478 13.3946 9.48043 13.2071 9.29289C13.0196 9.10536 12.7652 9 12.5 9C12.2348 9 11.9804 9.10536 11.7929 9.29289C11.6054 9.48043 11.5 9.73478 11.5 10C11.5 10.2652 11.6054 10.5196 11.7929 10.7071C11.9804 10.8946 12.2348 11 12.5 11Z" fill="currentColor" stroke="currentColor" stroke-width="1.5" stroke-linecap="round" stroke-linejoin="round"/>
</svg>
